# File exported by ZBrush version 2025
# www.zbrush.com
#Vertex Count 981
#UV Vertex Count 67
#Face Count 820
#Auto scale x=1.000000 y=1.000000 z=1.000000
#Auto offset x=0.000000 y=0.000000 z=0.000000
mtllib Water_crown.mtl
usemtl defaultMat
v 1.96223688 -0.32345584 -0.03127434
v -1.99015092 -0.01940394 -0.75962543
v 2.35544395 0.15185667 0.25398039
v -2.32148504 0.19383154 0.22508952
v 1.7350676 -0.30361405 1.03038942
v 0.35567805 -0.56735169 -0.20180369
v -0.03237003 -0.57258075 -0.55037105
v 0.08333571 -0.57162684 0.14831428
v -1.95590663 -0.15920905 0.098823
v -1.35790538 0.20643889 1.54156422
v -1.34022152 -0.05525291 -1.55902814
v 2.03165149 -0.20379717 -0.33367422
v 2.09958457 -0.17066793 -0.12453214
v 2.05641388 -0.22504243 0.07950051
v 1.92407906 -0.31755045 -0.36887157
v 2.06846165 -0.09898257 -0.55656784
v 1.85488903 -0.46208667 0.1557272
v 1.83153533 -0.45582494 -0.20172627
v -1.79609644 -0.06422311 -1.03512048
v -1.76398813 -0.152151 -0.91174203
v -2.00349831 -0.10108784 -0.46028065
v -2.15739035 0.05790774 -0.57370352
v -2.09082889 0.12386623 -0.95392245
v -1.97532355 0.06076307 -1.0142821
v -1.81081974 -0.0065397 -1.12845718
v 2.3573625 0.16441227 0.35819491
v 2.2779777 0.07282895 0.36278501
v 2.29582452 0.07864951 0.22238165
v 2.3249557 0.10244502 0.09897252
v 2.38836097 0.18194326 0.17964246
v 2.42981958 0.23571063 0.29122236
v -2.36621522 0.21239256 0.14727765
v -2.29364204 0.13943642 0.07468073
v -2.25215911 0.13243936 0.19672879
v -2.32232499 0.21387754 0.30883923
v -2.41227817 0.26647609 0.23955203
v -2.22557473 0.14711289 0.31164583
v 1.60714423 -0.26865688 1.24573981
v 1.54418814 -0.44312015 1.12211954
v 1.71894741 -0.4089131 0.89567971
v 1.87642264 -0.19656977 0.95593047
v 1.75666713 -0.05114211 1.31048071
v 0.34662729 -0.56740284 -0.13901688
v 0.26658606 -0.56759989 -0.17091797
v 0.30017268 -0.56753516 -0.24408492
v 0.44805291 -0.56749194 -0.26303786
v 0.48660856 -0.56749564 -0.17257005
v 0.38888746 -0.56774282 -0.34690061
v -0.07441569 -0.57497614 -0.70770931
v 0.05289653 -0.57321149 -0.71766287
v 0.04983675 -0.57111161 -0.518359
v -0.09940087 -0.57318729 -0.48962351
v -0.20108272 -0.57684499 -0.6623947
v 0.00019677 -0.57096332 -0.40973079
v -0.11655754 -0.58383441 0.46432912
v -0.17650778 -0.58240038 0.39474332
v -0.04745532 -0.57612514 0.30763205
v -0.01677198 -0.57938844 0.43728831
v 0.02612452 -0.57242661 0.15428353
v 0.01368088 -0.571877 0.10107021
v 0.09317527 -0.57099247 0.1102919
v 0.15807323 -0.5710051 0.15678179
v 0.12014379 -0.57197141 0.19634141
v 0.05848212 -0.5729587 0.21475076
v -1.8366512 -0.27298811 0.2050157
v -1.77171099 -0.21307471 0.46589642
v -1.84792172 -0.17306207 0.40676617
v -1.92440021 -0.20612758 -0.16009068
v -1.83734917 -0.2922593 -0.09052831
v -2.06948256 -0.04135077 0.12567827
v -2.1350162 -0.01630988 -0.06010949
v -2.05961918 -0.08670982 -0.1379076
v -1.99723267 -0.137645 -0.23388937
v -1.53976571 0.11310145 1.10608089
v -1.38000285 -0.09139578 1.04438948
v -1.16916167 -0.04396355 1.3717184
v -1.67201781 0.34516122 1.5900942
v -1.72507941 0.23293258 1.15212738
v -0.81892597 -0.21300981 1.60823595
v -0.87160038 0.00698601 1.69337523
v -0.88323926 0.13469091 1.8129028
v -1.31732428 0.2976067 1.80148232
v -1.61639702 0.39687076 1.8657757
v -1.50203084 -0.17172555 -1.24869656
v -1.5377115 -0.07485508 -1.33839583
v -1.34221661 0.12580609 -1.77018976
v -1.13968861 0.04554777 -1.84850335
v -1.18567788 -0.16986236 -1.57373333
v -1.43939268 -0.26821357 -1.18804013
v -1.38681221 0.46464592 -2.17845845
v -1.44828498 0.23925691 -1.82257485
v -1.63573443 0.05705547 -1.42374515
v -1.59488487 0.01865446 -1.40951168
v -1.20765066 0.32666757 -2.13651347
v -1.04368162 0.20749646 -2.11017203
v -0.77374291 0.06261475 -2.11475634
v -0.81864351 -0.06831485 -1.95668602
v -0.43379131 -0.07975634 -2.12163019
v -0.45054578 -0.17785948 -2.02562952
v -0.44667023 -0.27236554 -1.93615555
v -0.82273381 -0.21488449 -1.80848705
v -0.42708194 -0.35616302 -1.85444772
v -0.78710436 -0.33544483 -1.70115864
v -1.11947715 -0.33194246 -1.44489097
v -0.74566441 -0.42972666 -1.62210118
v -1.06431841 -0.43049007 -1.3740096
v -1.32472336 -0.44023832 -1.0689882
v -1.38210749 -0.35977488 -1.11974191
v -1.52579832 -0.44674024 -0.73907136
v -1.58743536 -0.37274822 -0.77345675
v -1.64612031 -0.29916369 -0.81552475
v -1.70881927 -0.22672431 -0.86258006
v -1.72124218 -0.37309363 -0.39015311
v -1.78935837 -0.29922059 -0.41927784
v -1.86300706 -0.22120079 -0.4511207
v -1.7692095 -0.36711818 -0.05000141
v -1.65351188 -0.4470193 -0.37277671
v -1.70000672 -0.44142937 -0.03401073
v -1.69999682 -0.43596029 0.27950242
v -1.76687765 -0.35515907 0.25993967
v -1.63646459 -0.40253958 0.53689694
v -1.70289552 -0.29912784 0.50955343
v -1.51934576 -0.28178915 0.7641595
v -1.59418714 -0.10997035 0.73451989
v -1.70516681 0.01359038 0.72360807
v -1.83102595 0.09514482 0.71060228
v -1.89504826 0.30511829 1.19134533
v -1.89257884 0.4004223 1.63119924
v -1.87055051 0.45471903 1.91539239
v -1.51698219 0.41668215 2.05846142
v -1.68927347 0.48638388 2.17605686
v -1.27893292 0.3389239 1.96831667
v -0.86635685 0.22025135 1.93972671
v -0.42026183 -0.09120056 1.85919904
v -0.38094094 0.02064059 1.93134915
v -0.01680737 -0.25722265 1.91269457
v 0.01560269 -0.16197937 1.97082173
v 0.35184007 -0.31546771 1.9056102
v 0.37336757 -0.22814531 1.96745824
v 0.70934027 -0.32433402 1.81914699
v 0.73038709 -0.22813065 1.88665127
v 1.05706167 -0.31387057 1.67978358
v 1.08818829 -0.19063153 1.76638984
v 1.37745499 -0.2735188 1.47606265
v 1.44432985 -0.09873173 1.58660829
v 1.01682972 -0.43845328 1.60144674
v 1.31711518 -0.44135093 1.37488198
v 0.97860533 -0.55220198 1.51963985
v 1.27775418 -0.57780492 1.26496017
v 1.52853882 -0.56614232 0.95958846
v 0.95062303 -0.65546435 1.4355334
v 1.25042176 -0.68509042 1.15777635
v 1.51603198 -0.66021299 0.79760384
v 0.89252078 -0.7319355 1.31089234
v 1.16599059 -0.76000583 1.04255724
v 1.39901411 -0.74243772 0.70314884
v 1.02971363 -0.77837163 0.90778577
v 1.20727098 -0.76612657 0.61314052
v 1.31890022 -0.7434569 0.31261053
v 1.54847157 -0.71265053 0.35385891
v 1.711694 -0.5989077 0.38725084
v 1.36965477 -0.70209777 0.01013934
v 1.59054267 -0.66456675 -0.01725007
v 1.74369263 -0.56748288 -0.07402461
v 1.54854536 -0.64836883 -0.3384715
v 1.68659758 -0.56929141 -0.41678914
v 1.77495169 -0.4541921 -0.50914394
v 1.88947916 -0.28997272 -0.62902367
v 1.5845524 -0.57617199 -0.70345908
v 1.68803632 -0.45007053 -0.7846474
v 1.8247981 -0.27300569 -0.87711614
v 1.99761962 -0.0174596 -0.98373836
v 2.05742788 -0.05129343 -0.77214282
v 1.52984368 -0.45868659 -1.040663
v 1.67164802 -0.27884554 -1.12004149
v 1.84113502 -0.03364343 -1.20539701
v 2.04487538 0.30202832 -1.30712735
v 2.22657489 0.35122001 -1.10600662
v 1.37246131 -0.33468198 -1.36742126
v 1.50093114 -0.16347764 -1.44316446
v 1.64012527 0.05790103 -1.52427709
v 1.77312541 0.30693885 -1.63013458
v 2.24641275 0.63522744 -1.47210395
v 1.05911326 -0.27111721 -1.67649567
v 1.1180762 -0.16243054 -1.74335277
v 1.16571366 -0.05409825 -1.82134509
v 0.68462938 -0.19842639 -1.92271041
v 0.70801496 -0.1250115 -1.99266076
v 0.293756 -0.23045952 -2.02455711
v 0.30714029 -0.16701984 -2.09315013
v -0.07640472 -0.22243017 -2.05666208
v -0.06365077 -0.15340602 -2.12666893
v 0.28585955 -0.29971015 -1.96178114
v -0.07682175 -0.29480382 -1.99020969
v 0.28104817 -0.3677645 -1.89035868
v -0.06933062 -0.36581152 -1.91669273
v 0.27882015 -0.43798425 -1.81591951
v -0.05824906 -0.43845424 -1.84207212
v -0.40251421 -0.43488618 -1.77959311
v -0.04544254 -0.50971585 -1.76665639
v -0.3776125 -0.5090565 -1.70781052
v -0.70369797 -0.50899392 -1.5533123
v -0.33992916 -0.56038421 -1.58619737
v -0.6408382 -0.56109041 -1.44599807
v -0.92047053 -0.56209778 -1.22789537
v -1.00665485 -0.50990718 -1.31521105
v -1.15753817 -0.5638718 -0.95866125
v -1.25848662 -0.51365786 -1.02407157
v -1.3389604 -0.56686532 -0.66661989
v -1.45328903 -0.51821452 -0.70985722
v -1.45529365 -0.56864047 -0.35164716
v -1.57740926 -0.51902025 -0.36439281
v -1.50279319 -0.56820493 -0.04094661
v -1.62475109 -0.51560241 -0.03385424
v -1.50407648 -0.57158839 0.25651764
v -1.62753021 -0.513062 0.27953606
v -1.44911944 -0.57255601 0.52472859
v -1.56674039 -0.49999496 0.54894316
v -1.35566854 -0.56121248 0.78558462
v -1.46190714 -0.45112577 0.80154544
v -1.21491515 -0.53893005 1.0566436
v -1.30410981 -0.35329458 1.0641483
v -1.00658559 -0.53995895 1.31327056
v -1.08677947 -0.3382416 1.34880828
v -0.71651226 -0.57146525 1.49936914
v -0.78169381 -0.43232536 1.5753256
v -0.37149047 -0.60232114 1.59877383
v -0.40700882 -0.50786441 1.69654059
v -0.43063852 -0.3793219 1.74766695
v -0.43887105 -0.23079335 1.80263209
v -0.02640112 -0.56057888 1.73782372
v -0.03421269 -0.46357038 1.80132079
v -0.03200266 -0.36044678 1.86197209
v 0.3300746 -0.50404024 1.77213811
v 0.33879351 -0.40919318 1.84498536
v 0.66030055 -0.53047579 1.68195128
v 0.68506866 -0.42829844 1.75445866
v 0.32824102 -0.59614878 1.69721317
v 0.64386415 -0.62759947 1.60589933
v 0.3171435 -0.67049711 1.57497322
v 0.61004704 -0.70276278 1.48168873
v 0.2968595 -0.69995212 1.40524518
v 0.55778819 -0.728365 1.31553888
v 0.8053444 -0.75424563 1.15181243
v 0.49712935 -0.70250403 1.12512993
v 0.70768845 -0.71771991 0.97833859
v 0.89267408 -0.73086702 0.77069634
v 0.61632323 -0.66846829 0.80417561
v 0.76940053 -0.67392551 0.63668406
v 0.89161521 -0.66457873 0.43738868
v 1.04138553 -0.71894031 0.52592909
v 0.96893042 -0.64984995 0.23126119
v 1.13742744 -0.69924485 0.27297613
v 1.00335764 -0.62886816 0.02140687
v 1.18066346 -0.66802221 0.01774206
v 0.99471253 -0.6142717 -0.18027116
v 1.16952943 -0.64890259 -0.22353263
v 1.35584008 -0.67942118 -0.27130213
v 1.10993897 -0.64425993 -0.44410598
v 1.28230667 -0.67389547 -0.52378451
v 1.4506607 -0.651093 -0.6148892
v 1.15891718 -0.68108469 -0.76062506
v 1.30158889 -0.66354697 -0.86549729
v 1.42496752 -0.58955228 -0.96344882
v 1.09550356 -0.65092074 -1.10594689
v 1.18941748 -0.58564358 -1.21405172
v 1.26319491 -0.47604361 -1.29190337
v 0.90540134 -0.5597465 -1.44622874
v 0.94215047 -0.47206375 -1.52695429
v 0.99597102 -0.37331399 -1.60469698
v 0.61024528 -0.44319456 -1.70742762
v 0.63102251 -0.3619582 -1.78424918
v 0.65761357 -0.28033337 -1.85790145
v 0.59663909 -0.52026581 -1.62934839
v 0.27901378 -0.50818967 -1.73875463
v 0.56457281 -0.57428872 -1.50494396
v 0.27077251 -0.55738383 -1.61129534
v -0.03182217 -0.55939447 -1.64079487
v 0.25648835 -0.57928121 -1.45979845
v -0.0173116 -0.58199292 -1.49110794
v -0.29702377 -0.58500081 -1.44700968
v 0.00147408 -0.58060371 -1.30161821
v -0.24036738 -0.5835489 -1.26561617
v -0.47933268 -0.58662682 -1.16195106
v -0.5707997 -0.58795356 -1.32235169
v -0.69894212 -0.58955943 -0.9966039
v -0.82364809 -0.59066724 -1.12755942
v -0.88662678 -0.59207797 -0.78663533
v -1.04151117 -0.59293025 -0.88529688
v -1.03395199 -0.59407407 -0.55512005
v -1.2122116 -0.59465658 -0.62244284
v -1.13246142 -0.59582555 -0.30934032
v -1.31906783 -0.59594231 -0.3369908
v -1.17368781 -0.59727376 -0.05862215
v -1.36081349 -0.59684759 -0.05121991
v -1.17171824 -0.60310661 0.1890047
v -1.35546875 -0.60231024 0.22441275
v -1.12380206 -0.60951566 0.41924563
v -1.29695224 -0.60865986 0.47763145
v -1.04065656 -0.61044752 0.64202034
v -1.2059555 -0.60741525 0.72391837
v -0.92192804 -0.61335372 0.85779136
v -1.07142317 -0.60603857 0.9687615
v -0.75313603 -0.62017345 1.04677057
v -0.88244605 -0.61400812 1.18978369
v -0.52718836 -0.62580764 1.177693
v -0.62626385 -0.62553381 1.34928178
v -0.26324656 -0.6410439 1.24830651
v -0.32245665 -0.64374285 1.43635129
v 0.01501781 -0.6645056 1.25560855
v -0.00220786 -0.6743195 1.45227968
v -0.01563692 -0.64046698 1.62359833
v 0.27287432 -0.68306726 1.20911037
v 0.03991574 -0.64390355 1.04396545
v 0.25294777 -0.65385389 1.00227391
v 0.44122305 -0.66307443 0.92642182
v 0.23277376 -0.62036371 0.80057519
v 0.38712561 -0.62108045 0.73368966
v 0.52657389 -0.61890864 0.63306742
v 0.32295382 -0.58868932 0.55311065
v 0.43036499 -0.58485621 0.47453057
v 0.52206158 -0.57965683 0.37489792
v 0.64760327 -0.61750394 0.50156503
v 0.59141367 -0.57705533 0.26337605
v 0.74224859 -0.61174011 0.34826469
v 0.63711535 -0.57486993 0.14356073
v 0.80153942 -0.60364836 0.18776147
v 0.65864712 -0.57193654 0.01969577
v 0.8287009 -0.59257286 0.02281467
v 0.65725332 -0.56910133 -0.10574542
v 0.82179898 -0.58346885 -0.13958771
v 0.62893968 -0.56856745 -0.23077122
v 0.78251588 -0.5822857 -0.29721969
v 0.94543147 -0.61125451 -0.36941674
v 0.71232956 -0.58690267 -0.44838345
v 0.85766375 -0.61674732 -0.55039584
v 1.00736606 -0.65043926 -0.65471863
v 0.73634886 -0.61357319 -0.72246056
v 0.85882574 -0.64213377 -0.85491901
v 0.98317039 -0.66699856 -0.98562562
v 0.67595505 -0.62091541 -1.03521943
v 0.7675867 -0.63576805 -1.19126963
v 0.84546095 -0.61603564 -1.32886886
v 0.52204394 -0.5983864 -1.35809505
v 0.46701833 -0.59404116 -1.17947113
v 0.23813588 -0.57823038 -1.27206695
v 0.4093385 -0.58557963 -0.99690425
v 0.21983602 -0.57643455 -1.07731187
v 0.02052187 -0.5786885 -1.10612702
v 0.19951579 -0.57395118 -0.88498109
v 0.03787251 -0.57600981 -0.91376203
v -0.13096618 -0.57829779 -0.89611595
v -0.1858558 -0.58138674 -1.07957136
v -0.29558643 -0.58071583 -0.83055919
v -0.38730138 -0.5843454 -0.99645614
v -0.44781819 -0.5831483 -0.72489768
v -0.57292497 -0.5871132 -0.86104267
v -0.58245283 -0.58538585 -0.58434277
v -0.73368644 -0.58963918 -0.68539881
v -0.69007885 -0.58733993 -0.41889363
v -0.86006385 -0.59173023 -0.48632481
v -0.76357722 -0.58910673 -0.24390713
v -0.9455896 -0.5935589 -0.27819579
v -0.79809182 -0.59074097 -0.06191567
v -0.98487865 -0.59529268 -0.06169201
v -0.79822295 -0.59489613 0.12041645
v -0.9841302 -0.60061341 0.15397372
v -0.76348626 -0.60031408 0.29676297
v -0.94439107 -0.6068201 0.35856303
v -0.69713622 -0.60308921 0.4594146
v -0.87083566 -0.60896474 0.55327743
v -0.60259634 -0.60632652 0.60893917
v -0.76425069 -0.61280685 0.7368347
v -0.4733127 -0.60920971 0.72923433
v -0.61508351 -0.61759227 0.89164269
v -0.30745449 -0.60955274 0.80652934
v -0.41922256 -0.62001442 0.99461513
v -0.12139733 -0.6120817 0.83988392
v -0.1932152 -0.62988925 1.04569029
v 0.06489472 -0.61754006 0.83500111
v -0.05483776 -0.59280115 0.63692259
v 0.07914717 -0.59244161 0.63467896
v 0.20408779 -0.59191942 0.60727864
v 0.06922477 -0.57783699 0.43964111
v 0.15726189 -0.57644546 0.42778506
v 0.24516521 -0.57512319 0.39431667
v 0.09969483 -0.57384622 0.28984525
v 0.16913732 -0.57281231 0.26943695
v 0.22931501 -0.57167786 0.22989547
v 0.32686537 -0.57343143 0.3389498
v 0.27629357 -0.5705657 0.17660701
v 0.3937892 -0.57189089 0.26741802
v 0.31191453 -0.5695756 0.11647166
v 0.44360861 -0.5705524 0.18625059
v 0.33632165 -0.56872087 0.050391
v 0.47849464 -0.56939852 0.09768611
v 0.3491635 -0.56805807 -0.01700738
v 0.49816164 -0.56849211 0.00710962
v 0.35184538 -0.56761705 -0.08109211
v 0.50150406 -0.56783872 -0.08389306
v 0.2363234 -0.56818199 -0.05152438
v 0.24815216 -0.5678094 -0.11076686
v 0.1454813 -0.56863784 -0.0894442
v 0.16710005 -0.56826043 -0.15096165
v 0.19648669 -0.5680347 -0.21958424
v 0.12096273 -0.56878209 -0.26415112
v 0.16571641 -0.568695 -0.35008153
v 0.2396637 -0.56796592 -0.30225437
v 0.08487922 -0.56906431 -0.1917666
v -0.00807041 -0.57034522 -0.23071287
v 0.03732881 -0.56988459 -0.30045878
v 0.05472173 -0.56950002 -0.12682142
v -0.04799908 -0.5709446 -0.16419032
v -0.17905251 -0.57341665 -0.21108762
v -0.12478011 -0.57247412 -0.28288459
v 0.03180826 -0.57006537 -0.06564714
v -0.07945783 -0.57165908 -0.0967241
v -0.2190269 -0.5743522 -0.13039587
v -0.39230936 -0.57855594 -0.16934418
v -0.3424409 -0.57734203 -0.27666252
v -0.09742728 -0.57239532 -0.02782495
v -0.23960575 -0.5752362 -0.04409043
v -0.41671401 -0.57965159 -0.0556579
v -0.6075595 -0.58508509 -0.06044063
v -0.5784173 -0.58377188 -0.20786328
v -0.23635876 -0.57588213 0.04389404
v -0.41345015 -0.58055383 0.06011147
v -0.60581153 -0.58752298 0.08776276
v -0.38401955 -0.58195096 0.16995653
v -0.57511305 -0.59101563 0.23018954
v -0.32997578 -0.58292233 0.26517382
v -0.51464128 -0.59367173 0.35929703
v -0.25700739 -0.58285415 0.33905306
v -0.43177285 -0.59569203 0.47128203
v -0.32621792 -0.59676361 0.55896091
v -0.19566533 -0.59553563 0.61482232
v -0.15984433 -0.57612204 0.19274318
v -0.09890324 -0.5758757 0.24762299
v -0.05105435 -0.57375681 0.16644869
v -0.01434492 -0.57413059 0.22594212
v 0.02710202 -0.57480752 0.29519712
v -0.20881401 -0.57618397 0.12489191
v -0.07883717 -0.57339978 0.10602032
v -0.09702145 -0.57298582 0.04060522
v 0.01052185 -0.57130765 0.04801128
v 0.01662892 -0.57069873 -0.00707622
v 0.11380829 -0.56975501 0.02091123
v 0.10258447 -0.57038259 0.06899488
v 0.20630018 -0.56938743 0.06131251
v 0.18486392 -0.57015484 0.11149929
v 0.12825042 -0.56915432 -0.03211854
v 0.22333878 -0.56871885 0.00654632
v -0.51691937 -0.58227026 -0.34891894
v -0.42844125 -0.58057624 -0.47798249
v -0.27188769 -0.57599645 -0.37107217
v -0.3205437 -0.57871258 -0.58421969
v -0.18728791 -0.57456404 -0.44384852
v -0.06140388 -0.57157802 -0.34543484
v 0.08388695 -0.56968355 -0.38101214
v 0.13519449 -0.57008057 -0.50990355
v 0.22520269 -0.56910276 -0.4782544
v 0.29088443 -0.57036566 -0.64281612
v 0.39996144 -0.57029551 -0.56444883
v 0.31248074 -0.56828826 -0.42185717
v 0.17411142 -0.57169646 -0.69476598
v 0.35228499 -0.57588177 -0.81790167
v 0.58314025 -0.60173177 -0.87528616
v 0.49271041 -0.58283853 -0.71754366
v 0.61368328 -0.58691948 -0.59172684
v 0.49626565 -0.57074719 -0.46578735
v 0.5737729 -0.56979978 -0.35230886
v 2.57512927 0.93224179 -1.38948249
v 2.68373918 0.94377803 -1.24088573
v 2.26854062 0.25150466 -0.90994691
v 2.68738722 0.81076538 -1.06248474
v 2.29920196 0.1979154 -0.73777848
v 2.58518838 0.48355683 -0.78827405
v 2.32089424 0.17420509 -0.58276909
v -2.16083002 0.04726911 0.1585256
v -2.20962452 0.05638869 0.00426424
v -2.01178526 -0.03975663 0.30266347
v -2.12096667 0.06603932 0.30462858
v 1.84513771 -0.44202634 0.49615326
v 1.94647181 -0.34831523 0.38185033
v 2.02417206 -0.25415748 0.36510351
v 2.13323926 -0.13050928 0.13549433
v 2.1018536 -0.15329219 0.35960474
v 2.2143104 -0.02580173 0.18187405
v 2.19122409 -0.03583477 0.35998708
v 2.17073798 -0.09103956 -0.0517071
v 2.2468028 0.00290538 0.01882079
v 1.71570193 -0.50558257 0.702304
v -2.2664206 0.16438363 -0.63354384
v -2.23517298 0.20962069 -0.88249337
v 1.86564934 -0.33048951 0.74174994
v 1.81663835 -0.11033902 -0.79990077
v -1.90865063 0.06413144 0.14278695
v 2.36408186 0.56515699 -0.77764576
v -2.08294749 0.48799464 1.2020657
v 1.85619783 -0.23375782 0.05428939
v -1.61923933 0.15265236 0.7261573
v -0.44092279 -0.01140261 1.63615381
v -1.65022981 -0.12397182 -0.6172921
v 1.90757787 0.15489558 -1.05410301
v 2.0608294 0.26638123 -0.93086028
v 1.97353172 0.06998791 -0.75828719
v 1.6874175 -0.12915134 -1.03409218
v 1.86825418 0.27211409 -1.222332
v 1.68092942 -0.34576776 -0.62118971
v 1.56296896 -0.36888232 -0.86975073
v -1.86579096 -0.03330795 -0.09641015
v -1.79993641 -0.11433805 -0.02424884
v -1.79757022 0.03002012 0.33742067
v -1.97093677 0.19893354 0.32748451
v -2.07116127 0.20018751 0.05697527
v -1.99946892 0.11342296 -0.02107108
v -1.90727734 0.00969004 -0.15002138
v 2.32160878 0.46508106 -0.67247837
v 2.24635028 0.36828312 -0.63183319
v 2.29094195 0.46570932 -0.75986063
v 2.47968626 0.82459485 -0.9713276
v 2.5122447 0.83630985 -0.92737889
v 2.45043063 0.68209362 -0.80161583
v -2.12381577 0.48660475 1.13554954
v -2.04864454 0.43388199 1.00382018
v -2.01297473 0.45061275 1.12322735
v -2.08063626 0.50663828 1.29938924
v -2.16192889 0.52616524 1.26505196
v -1.99027347 0.46918609 1.2488842
v 1.82298517 -0.24729149 0.27749499
v 1.7306205 -0.39681848 0.18594729
v 1.79574394 -0.31742614 -0.05042773
v 1.94251418 -0.11033355 -0.04699198
v 1.96541535 -0.02517251 0.29481503
v -1.4521383 -0.01354824 0.7328937
v -1.37236678 0.09850779 0.9805879
v -1.47875416 0.17196896 0.97899264
v -1.63113892 -0.02534695 0.50359773
v -1.54761505 -0.16643483 0.53624224
v -1.78357052 0.30591231 0.87417691
v -1.85198497 0.28037169 0.72245973
v -1.76382637 0.17211294 0.59009802
v -1.71713173 0.06065687 0.48172727
v -0.87709927 0.06247641 1.47000229
v -0.79595547 -0.20504428 1.41535294
v -0.43048551 -0.29465863 1.56777441
v -0.73523175 0.2764177 1.74925029
v -1.05955779 0.26179486 1.56741333
v -0.04183211 -0.41466781 1.61590552
v -0.02333653 -0.2687886 1.67862951
v 0.03702555 -0.14962954 1.72994291
v -0.26617279 0.08669301 1.74208223
v -0.51965189 0.30822703 1.86051642
v -1.69952869 -0.17646332 -0.36128342
v -1.75065815 -0.10490785 -0.39688068
v -1.70303177 -0.00785878 -0.7347598
v -1.56406581 -0.0580353 -0.88488829
v -1.53346943 -0.20876658 -0.70253557
v -1.63254821 -0.26053261 -0.35136759
v -1.86863982 0.32064414 -1.02446615
v -1.80194485 0.08071512 -0.71760761
v -1.84954655 -0.00287383 -0.39932787
v -1.81344282 -0.03564257 -0.41009646
v -1.70609295 0.20168207 -1.07969808
v -1.56594836 0.12653894 -1.14447438
v -1.3554722 0.08113851 -1.30154788
v -1.34249043 -0.08528911 -1.1293888
v -1.09122932 0.03868057 -1.50347316
v -1.07122993 -0.10706523 -1.38512325
v -1.03635132 -0.23590458 -1.29239463
v -1.30524027 -0.22449629 -1.01561951
v -0.99024277 -0.33953869 -1.22655665
v -1.24512314 -0.33253744 -0.95739996
v -1.44727754 -0.33339124 -0.65658617
v -1.18490648 -0.42711335 -0.91768866
v -1.37937808 -0.42874008 -0.62939381
v -1.49836897 -0.43693098 -0.31116217
v -1.56384635 -0.35007619 -0.32712203
v -1.55098712 -0.4465011 0.02617575
v -1.61592936 -0.36378744 0.02315007
v -1.67839682 -0.28001916 0.01097594
v -1.74259424 -0.19702972 -0.00517557
v -1.59069407 -0.36012509 0.34504064
v -1.64543497 -0.26179677 0.32957914
v -1.70221364 -0.1526146 0.3145253
v -1.4975866 -0.30359625 0.57229143
v -1.53504133 -0.45173388 0.34903857
v -1.45150435 -0.42741265 0.5937199
v -1.34575688 -0.35672313 0.80188673
v -1.37799227 -0.17531865 0.76259756
v -1.21412849 -0.26185059 0.98608374
v -1.27044761 -0.05150799 0.96657246
v -1.05178487 -0.19654551 1.19094908
v -1.13745093 0.04150255 1.20961725
v -1.27989351 0.20922447 1.28153979
v -1.44148969 0.32369673 1.36746478
v -1.236835 0.38280978 1.68295884
v -0.96779537 0.40672257 1.88329207
v -0.7799859 0.4473232 2.01530385
v -0.32561671 0.31089109 1.93631887
v -0.45444825 0.44726631 2.08736634
v -0.16063062 0.14181254 1.82714057
v 0.10848639 -0.04447072 1.78716313
v 0.3605602 -0.25678935 1.68663322
v 0.40887787 -0.15241192 1.73381888
v 0.6632297 -0.32425767 1.56587672
v 0.71029269 -0.22231848 1.60747861
v 0.943636 -0.37467563 1.39646387
v 0.9890123 -0.27454254 1.43783068
v 1.22182953 -0.40771111 1.16179001
v 1.26677596 -0.29697635 1.21316266
v 1.49254941 -0.37655305 0.86264282
v 1.54863166 -0.24644969 0.93719559
v 1.7033087 -0.30615329 0.55753642
v 1.79363095 -0.13236078 0.64805996
v 1.43260204 -0.50025582 0.79889011
v 1.62155544 -0.45476567 0.47621429
v 1.37406384 -0.60444957 0.73376125
v 1.55265677 -0.56705075 0.39060902
v 1.66080844 -0.49186798 0.06060814
v 1.32378697 -0.69284033 0.6666907
v 1.49252224 -0.65579968 0.31322178
v 1.59063339 -0.57311415 -0.05437911
v 1.23243677 -0.74697673 0.58566176
v 1.37810111 -0.71648269 0.25948035
v 1.45389127 -0.65907394 -0.07430841
v 1.21017372 -0.72725862 0.2198055
v 1.25254082 -0.69134867 -0.05639391
v 1.23239672 -0.67699813 -0.30132028
v 1.44815623 -0.63447672 -0.36636954
v 1.60343384 -0.50808221 -0.40859836
v 1.15957915 -0.6729387 -0.52436745
v 1.34218704 -0.6382271 -0.6281082
v 1.46990215 -0.53307211 -0.73143333
v 1.17722332 -0.64755791 -0.85886579
v 1.28240704 -0.55473244 -0.97703546
v 1.36866068 -0.40066602 -1.08699023
v 1.47475254 -0.1984478 -1.20960295
v 1.04928314 -0.55156987 -1.18243467
v 1.10395515 -0.42514008 -1.27790701
v 1.1808561 -0.27362465 -1.37765848
v 1.28157591 -0.07160728 -1.49197769
v 1.62337887 0.1193434 -1.36008548
v 0.82264161 -0.42243629 -1.44692707
v 0.86711424 -0.30032748 -1.53906464
v 0.91839879 -0.16767957 -1.63183808
v 0.95924049 -0.02315449 -1.72497725
v 1.38957667 0.19526439 -1.62501251
v 0.53948253 -0.30423462 -1.65579509
v 0.55980527 -0.19646468 -1.74181282
v 0.57372993 -0.0886136 -1.82028174
v 0.5680589 0.00872773 -1.89998793
v 0.96909713 0.11499467 -1.82594728
v 0.21632382 -0.2443756 -1.77997279
v 0.21082507 -0.15913742 -1.84585297
v 0.19583661 -0.07915392 -1.91440439
v -0.12249498 -0.19162601 -1.80924785
v -0.13957464 -0.11865451 -1.87090694
v -0.4510473 -0.19112947 -1.71701479
v -0.46887791 -0.1045112 -1.78970837
v -0.76957804 -0.15129484 -1.58004462
v -0.78827071 -0.03452753 -1.67267656
v -0.4322519 -0.27667623 -1.65730273
v -0.74279695 -0.25923836 -1.50558412
v -0.40908727 -0.35539877 -1.59665966
v -0.70815712 -0.35070255 -1.4415127
v -0.38432106 -0.43440154 -1.53628373
v -0.67158061 -0.43502792 -1.38591063
v -0.94213151 -0.43100416 -1.1761415
v -0.63471019 -0.51513463 -1.33257889
v -0.89593422 -0.51447349 -1.13140106
v -1.12549686 -0.5142396 -0.88215863
v -0.82127875 -0.5721212 -1.05408287
v -1.03355002 -0.57273829 -0.82465434
v -1.2043147 -0.57357114 -0.5696876
v -1.30994391 -0.51501792 -0.60610997
v -1.31671881 -0.57556587 -0.28872236
v -1.4261384 -0.51919674 -0.30154094
v -1.36491191 -0.57980501 0.00817683
v -1.47748613 -0.52569145 0.01982691
v -1.3605721 -0.58877474 0.30249631
v -1.46896827 -0.53395932 0.33606883
v -1.29919755 -0.59205168 0.5540511
v -1.39674615 -0.52884441 0.59233176
v -1.211887 -0.58528959 0.77887946
v -1.30296707 -0.50012302 0.81925976
v -1.09431695 -0.5775156 0.98357284
v -1.17985749 -0.45978802 1.01996862
v -0.93110215 -0.57972031 1.17333614
v -1.01343584 -0.43589532 1.21506166
v -0.68750774 -0.59061205 1.33363068
v -0.75681221 -0.44606837 1.39852154
v -0.3668521 -0.60726982 1.42887306
v -0.40754067 -0.48562097 1.51750457
v -0.02140512 -0.64442992 1.44055485
v -0.03765898 -0.54438018 1.55044341
v 0.29742178 -0.67657768 1.37517213
v 0.30727505 -0.59012562 1.48881375
v 0.31279918 -0.48040136 1.56358146
v 0.32923874 -0.36623051 1.63358283
v 0.58908391 -0.63590288 1.38411688
v 0.6067267 -0.53642135 1.45336592
v 0.63160711 -0.43061333 1.51789724
v 0.87430131 -0.58036184 1.28799796
v 0.90786868 -0.47937053 1.34965324
v 1.13350451 -0.6179375 1.04880416
v 1.17781889 -0.51830959 1.10995078
v 0.8484137 -0.67394721 1.21970832
v 1.09725725 -0.70651245 0.98048728
v 0.8022837 -0.73693317 1.11193788
v 1.03125107 -0.76099777 0.88015449
v 0.73458391 -0.74351251 0.96972519
v 0.93491655 -0.75952845 0.76010072
v 1.10230982 -0.74760705 0.49927714
v 1.03533399 -0.67566728 -0.73572462
v 0.86616152 -0.6588509 -0.92644637
v 0.97234469 -0.63078284 -1.06155419
v 0.66898101 -0.63214463 -1.09325134
v 0.74229574 -0.6017735 -1.23517775
v 0.79363274 -0.53024381 -1.3579427
v 0.48948967 -0.5699265 -1.36467218
v 0.51618272 -0.50205254 -1.48885393
v 0.52418136 -0.40822708 -1.57015669
v 0.22514547 -0.4965986 -1.55592894
v 0.21919092 -0.41302138 -1.63133633
v 0.21703836 -0.32751834 -1.70685708
v -0.0855018 -0.42666232 -1.61984658
v -0.09899442 -0.34639146 -1.68733966
v -0.11046204 -0.26927366 -1.75225794
v -0.06854458 -0.50702136 -1.55156791
v -0.35745126 -0.51327467 -1.47478199
v -0.05129054 -0.5641002 -1.43608248
v -0.31970971 -0.56855148 -1.36988234
v -0.57932734 -0.57095408 -1.24056041
v -0.27907052 -0.59312021 -1.24398708
v -0.51540899 -0.59634029 -1.13128435
v -0.73660504 -0.59975057 -0.96635985
v -0.93027645 -0.60288387 -0.758538
v -1.08520376 -0.60561895 -0.52767127
v -1.19143009 -0.60816097 -0.27510803
v -1.24209737 -0.61073714 -0.00753039
v -1.2385149 -0.61810904 0.26076147
v -1.1831367 -0.62421196 0.49802213
v -1.09764242 -0.62460643 0.70895546
v -0.9791187 -0.62757682 0.89858472
v -0.81845974 -0.63475716 1.06806337
v -0.59023243 -0.64226061 1.1951431
v -0.30647531 -0.65605825 1.26525712
v 0.00079442 -0.68265932 1.2678318
v 0.28063988 -0.70420479 1.21224486
v 0.51669251 -0.72499239 1.11883688
v 0.55975002 -0.70925784 1.27380609
v 0.44619685 -0.60196715 -1.2172656
v 0.20854286 -0.58808744 -1.28708851
v 0.22110387 -0.55784726 -1.43471241
v -0.03504282 -0.59035617 -1.29840862
v 1.43755602 0.42597147 -1.76968348
v 1.86441004 0.77884578 -1.73880636
v 1.83106625 0.57913488 -1.55521464
v 2.13734531 0.99575114 -1.73291659
v 2.13613057 0.82059055 -1.51074492
v 2.34541535 1.14337217 -1.70211374
v 2.3279612 0.96282613 -1.46498167
v -1.90528047 0.38916087 1.00274491
v -1.94694328 0.36261007 0.85599333
v -1.7279973 0.32991612 1.04662203
v -1.87644231 0.41609016 1.16445624
v 1.76702988 -0.32157829 -0.38584587
v 1.84895658 -0.18427451 -0.50051599
v 1.94220697 -0.04629183 -0.53837722
v 2.0943861 0.22881247 -0.7468158
v 2.04169583 0.09864945 -0.56948584
v 2.19631123 0.3494887 -0.74554354
v 2.15697789 0.25921586 -0.59976595
v 2.18065333 0.40836262 -0.91249686
v 2.34049916 0.63449311 -0.95235526
v 1.72349202 -0.40240064 -0.19586771
v -2.09852623 0.29592528 0.34269884
v -2.16447758 0.31057268 0.15826371
v 1.86236023 -0.21770696 -0.21477846
v 0.29030591 -0.59358185 -0.01661914
v 0.25046166 -0.593095 -0.06435602
v 0.22773821 -0.59510111 -0.12944336
v 0.34815445 -0.5539754 -0.08039093
v 0.31158533 -0.5557338 -0.13295514
v 0.29645696 -0.561746 -0.20821133
v 0.45003956 -0.53042984 -0.19701334
v 0.41915294 -0.53504288 -0.25706177
v 0.41625431 -0.54585439 -0.34728521
v 0.63048279 -0.53453415 -0.40705832
v 0.60739147 -0.54102122 -0.47563695
v 0.61936068 -0.55525547 -0.57863515
v 0.92420077 -0.582161 -0.68811237
v 0.90567302 -0.58900004 -0.75282192
v 0.91165673 -0.59783995 -0.83889603
v 1.1562196 -0.56514322 -0.88915425
v 1.127231 -0.56426036 -0.94488954
v 1.10823559 -0.55596381 -1.00832271
v 1.29174184 -0.46974015 -1.00084245
v 1.25777173 -0.46862065 -1.05275428
v 1.22810447 -0.45941698 -1.10686147
v 1.37850761 -0.36006394 -1.06810462
v 1.34253037 -0.36033415 -1.11894393
v 1.3084371 -0.35381853 -1.16943049
v 1.44266939 -0.25577434 -1.11077547
v 1.40545547 -0.2571277 -1.16138482
v 1.36918592 -0.25340801 -1.21045136
v 1.49825561 -0.16497963 -1.14018845
v 1.45962309 -0.16668084 -1.19071853
v 1.42174267 -0.16497942 -1.23919343
v 1.54769587 -0.08674392 -1.1636089
v 1.50818967 -0.08869796 -1.21372771
v 1.46878886 -0.08812784 -1.26179039
v 1.58833992 -0.01623239 -1.18573486
v 1.54809546 -0.01817449 -1.23518025
v 1.50748086 -0.01823941 -1.28270518
v 1.62490749 0.04942143 -1.20838117
v 1.58436203 0.04806903 -1.25707638
v 1.54271042 0.04770655 -1.3039155
v 1.66468334 0.11579874 -1.23338818
v 1.62431538 0.11552283 -1.28132116
v 1.58145773 0.11482229 -1.32746028
v 1.71490216 0.18831272 -1.26168596
v 1.67519021 0.18943297 -1.3089174
v 1.63061416 0.18785347 -1.35412263
v 1.77901566 0.28315946 -1.29769897
v 1.74135983 0.28750941 -1.34544539
v 1.69564569 0.2822265 -1.3894993
v 1.8534888 0.43458211 -1.34637892
v 1.81988275 0.45197635 -1.39720547
v 1.77445185 0.44272935 -1.44063794
v 1.93748486 0.62178015 -1.41566157
v 1.91048216 0.64231675 -1.47910678
v 1.8668667 0.63749247 -1.52527427
v 2.01647043 0.74398553 -1.49702107
v 1.99203884 0.76386576 -1.56313812
v 1.95122623 0.76478487 -1.61332297
v 2.07227087 0.82806098 -1.54632258
v 2.04693532 0.8480975 -1.60808682
v 2.00732469 0.85246849 -1.65871357
v 2.1086204 0.88900095 -1.57507205
v 2.08175373 0.90734118 -1.63366019
v 2.04236507 0.91269981 -1.6838305
v 2.13136911 0.93530499 -1.59424316
v 2.10286498 0.95140838 -1.65068161
v 2.0631864 0.95646292 -1.70021939
v 0.1550164 -0.6558718 -0.01341883
v 0.153317 -0.63724595 -0.07325597
v 0.17669904 -0.61856037 -0.13467317
v 0.2412281 -0.60822266 -0.00610468
v 0.24536663 -0.59086924 -0.06789574
v 0.28171262 -0.57424062 -0.13243112
v 0.39843449 -0.56787616 -0.00787994
v 0.41183066 -0.55237203 -0.07131003
v 0.4663999 -0.54035848 -0.13461811
v 0.66652977 -0.56355887 0.01984934
v 0.69024896 -0.55150896 -0.0392718
v 0.76089304 -0.54946398 -0.08970402
v 1.04938662 -0.63695401 0.1040949
v 1.07437181 -0.62983429 0.04965901
v 1.13026821 -0.62607002 -0.00431102
v 1.33726072 -0.63446509 0.13123172
v 1.34915018 -0.61953365 0.07488315
v 1.37277531 -0.59679716 0.01728494
v 1.49309623 -0.56252116 0.15710923
v 1.49916088 -0.54721701 0.10089328
v 1.50975751 -0.52396655 0.04393334
v 1.5967561 -0.50634235 0.19427309
v 1.60113513 -0.49133601 0.13649158
v 1.607216 -0.46892368 0.07761499
v 1.67892026 -0.46301564 0.23253639
v 1.68247818 -0.44818759 0.17311592
v 1.68635928 -0.42621073 0.11205048
v 0.21439357 -0.50579124 -0.10314796
v 0.25253433 -0.50931489 -0.15310259
v 0.33813107 -0.51182758 -0.11435799
v 0.24546761 -0.50709372 0.03536058
v 0.34579134 -0.51217913 0.03305344
v 0.44779947 -0.52275228 0.02917477
v 0.33610272 -0.5396192 0.26481536
v 0.44457691 -0.54901391 0.27025345
v 0.55569577 -0.56652736 0.27825611
v 0.46459516 -0.60024797 0.55782002
v 0.56917095 -0.60970515 0.56890684
v 0.68393486 -0.63033586 0.60238319
v 0.62793266 -0.66580981 0.91344088
v 0.72064721 -0.66076779 0.91997009
v 0.82660484 -0.66117644 0.95405387
v 0.73809683 -0.62416768 1.17311275
v 0.82280355 -0.60680073 1.16089522
v 0.91837549 -0.58641916 1.17897057
v 0.77910155 -0.50131952 1.32861554
v 0.86435312 -0.48436465 1.3024708
v 0.95531898 -0.45117265 1.30627501
v 0.78393584 -0.34974524 1.42049074
v 0.86297375 -0.33380922 1.39480185
v 0.94424724 -0.30770468 1.38659989
v 0.79433441 -0.22839899 1.4744296
v 0.83582437 -0.17630663 1.4860028
v 0.89616096 -0.20553152 1.44984602
v 0.44141936 -0.57189172 -0.16243995
v 0.4679358 -0.59997326 -0.08402012
v 0.36208587 -0.59005463 -0.0140578
v 0.26595827 -0.5125001 -0.22639671
v 0.19467082 -0.52293753 -0.11157088
v 0.12169553 -0.5434035 0.00520848
v -0.06742426 -0.48271799 -0.30060279
v -0.15630728 -0.50466102 -0.18439266
v -0.2526701 -0.53642606 -0.0676819
v -0.5187053 -0.52168792 -0.38466566
v -0.60713768 -0.54144066 -0.27121666
v -0.72778308 -0.56730371 -0.15689273
v -1.01088631 -0.5447632 -0.41110134
v -1.07988357 -0.54841274 -0.29487171
v -1.19301188 -0.5468595 -0.18352651
v -1.34296071 -0.42938253 -0.40618655
v -1.38729298 -0.42137992 -0.28964677
v -1.48040318 -0.39426028 -0.1900663
v -1.54385745 -0.2687495 -0.44789326
v -1.57708203 -0.26937851 -0.32453781
v -1.65806305 -0.23426786 -0.2274847
v -1.67368149 -0.09609669 -0.50694191
v -1.7023921 -0.0992235 -0.391036
v -1.75656271 -0.07052399 -0.29358482
v -1.75009024 0.06363833 -0.52898126
v -1.79157388 0.13253057 -0.48149007
v -1.79670047 0.07207521 -0.38847494
v 0.24578717 -0.56080269 -0.30503007
v 0.32697525 -0.59124857 -0.29168304
v 0.33602574 -0.58551764 -0.16605442
v 0.10556782 -0.50207173 -0.18027076
v 0.17075985 -0.51775574 -0.06390953
v 0.2385361 -0.54372257 0.05545732
v -0.11297668 -0.4758847 0.08053861
v -0.05321097 -0.50368315 0.21377378
v 0.00554951 -0.54240161 0.35591241
v -0.38437715 -0.53012192 0.45977801
v -0.32491943 -0.5589993 0.59805595
v -0.27975747 -0.59451299 0.76497483
v -0.63553547 -0.57387214 0.90469217
v -0.56614083 -0.58399999 1.022619
v -0.52251333 -0.58778786 1.17395556
v -0.78765171 -0.46268203 1.19908213
v -0.70639401 -0.45924833 1.29310953
v -0.66364419 -0.43445259 1.41794157
v -0.91870677 -0.29680654 1.34733867
v -0.82628601 -0.30231529 1.43508529
v -0.77983164 -0.26905721 1.54799675
v -1.03075826 -0.11711636 1.42536377
v -0.942685 -0.12509894 1.50611376
v -0.88277185 -0.09928578 1.59818363
v -1.08413744 0.04610225 1.47951674
v -1.06088817 0.11337266 1.53924179
v -0.98284459 0.04885793 1.58737671
v 0.37761551 -0.66567277 0.08859863
v 0.31832468 -0.69295555 0.14665207
v 0.21241711 -0.67749893 0.08901374
v 0.36112365 -0.6012277 -0.08868937
v 0.22966037 -0.60874378 -0.09679479
v 0.09179207 -0.62156665 -0.10518199
v 0.26174116 -0.53889685 -0.40687349
v 0.10337705 -0.54831057 -0.42391815
v -0.06603965 -0.56548923 -0.44472366
v 0.02440678 -0.49861049 -0.80521392
v -0.12184746 -0.51358699 -0.81233197
v -0.26032748 -0.55374068 -0.8292908
v -0.16374629 -0.52213853 -1.15055573
v -0.27715101 -0.56124478 -1.11522817
v -0.41260895 -0.57770758 -1.14353907
v -0.35097503 -0.46025601 -1.37003123
v -0.45195135 -0.4662103 -1.32816922
v -0.58797752 -0.43573084 -1.36462605
v -0.46835812 -0.33120709 -1.53286719
v -0.56846165 -0.33219093 -1.48446404
v -0.6878581 -0.28241002 -1.50828576
v -0.52916765 -0.21651595 -1.65201973
v -0.62402689 -0.20759581 -1.60348677
v -0.71791487 -0.15559116 -1.59468925
v -0.56531387 -0.08216187 -1.7204442
v -0.6182568 -0.0015735 -1.72477877
v -0.6872949 -0.04887948 -1.67327904
vt 0 0
vt 0.9375 0.34375
vt 0.9375 0.375
vt 0.96875 0.375
vt 0.96875 0.34375
vt 1 0.375
vt 1 0.34375
vt 0.9375 0.40625
vt 0.96875 0.40625
vt 1 0.40625
vt 0.9375 0.4375
vt 0.96875 0.4375
vt 1 0.4375
vt 0.9375 0.46875
vt 0.96875 0.46875
vt 1 0.46875
vt 0.9375 0.5
vt 0.96875 0.5
vt 1 0.5
vt 0.9375 0.53125
vt 0.96875 0.53125
vt 1 0.53125
vt 0.9375 0.5625
vt 0.96875 0.5625
vt 1 0.5625
vt 0.9375 0.59375
vt 0.96875 0.59375
vt 1 0.59375
vt 0.9375 0.625
vt 0.96875 0.625
vt 1 0.625
vt 0.9375 0.65625
vt 0.96875 0.65625
vt 1 0.65625
vt 0.9375 0.6875
vt 0.96875 0.6875
vt 1 0.6875
vt 0.9375 0.71875
vt 0.96875 0.71875
vt 1 0.71875
vt 0.9375 0.75
vt 0.96875 0.75
vt 1 0.75
vt 0.9375 0.78125
vt 0.96875 0.78125
vt 1 0.78125
vt 0.9375 0.8125
vt 0.96875 0.8125
vt 1 0.8125
vt 0.9375 0.84375
vt 0.96875 0.84375
vt 1 0.84375
vt 0.9375 0.875
vt 0.96875 0.875
vt 1 0.875
vt 0.9375 0.90625
vt 0.96875 0.90625
vt 1 0.90625
vt 0.9375 0.9375
vt 0.96875 0.9375
vt 1 0.9375
vt 0.9375 0.96875
vt 0.96875 0.96875
vt 1 0.96875
vt 0.9375 1
vt 0.96875 1
vt 1 1
g Group33190
f 1/1 14/1 13/1 12/1
f 1/1 12/1 16/1 15/1
f 1/1 15/1 18/1 17/1
f 2/1 21/1 20/1 19/1
f 2/1 24/1 23/1 22/1
f 2/1 19/1 25/1 24/1
f 3/1 28/1 27/1 26/1
f 3/1 30/1 29/1 28/1
f 3/1 26/1 31/1 30/1
f 4/1 34/1 33/1 32/1
f 4/1 32/1 36/1 35/1
f 4/1 35/1 37/1 34/1
f 5/1 40/1 39/1 38/1
f 5/1 38/1 42/1 41/1
f 6/1 45/1 44/1 43/1
f 6/1 43/1 47/1 46/1
f 6/1 46/1 48/1 45/1
f 7/1 51/1 50/1 49/1
f 7/1 49/1 53/1 52/1
f 7/1 52/1 54/1 51/1
f 55/1 58/1 57/1 56/1
f 8/1 61/1 60/1 59/1
f 8/1 63/1 62/1 61/1
f 8/1 59/1 64/1 63/1
f 9/1 67/1 66/1 65/1
f 9/1 65/1 69/1 68/1
f 9/1 72/1 71/1 70/1
f 9/1 68/1 73/1 72/1
f 10/1 76/1 75/1 74/1
f 10/1 74/1 78/1 77/1
f 10/1 80/1 79/1 76/1
f 10/1 82/1 81/1 80/1
f 10/1 77/1 83/1 82/1
f 11/1 86/1 85/1 84/1
f 88/1 11/1 84/1 89/1
f 11/1 88/1 87/1 86/1
f 92/1 25/1 19/1 93/1
f 93/1 85/1 86/1 91/1
f 93/1 19/1 20/1 85/1
f 91/1 86/1 94/1 90/1
f 94/1 86/1 87/1 95/1
f 95/1 87/1 97/1 96/1
f 97/1 99/1 98/1 96/1
f 97/1 101/1 100/1 99/1
f 97/1 87/1 88/1 101/1
f 101/1 103/1 102/1 100/1
f 101/1 88/1 104/1 103/1
f 104/1 106/1 105/1 103/1
f 104/1 108/1 107/1 106/1
f 104/1 88/1 89/1 108/1
f 108/1 110/1 109/1 107/1
f 108/1 89/1 111/1 110/1
f 111/1 89/1 84/1 112/1
f 111/1 114/1 113/1 110/1
f 111/1 112/1 115/1 114/1
f 115/1 112/1 20/1 21/1
f 115/1 68/1 69/1 114/1
f 115/1 21/1 73/1 68/1
f 114/1 69/1 116/1 113/1
f 116/1 118/1 117/1 113/1
f 116/1 120/1 119/1 118/1
f 116/1 69/1 65/1 120/1
f 120/1 122/1 121/1 119/1
f 120/1 65/1 66/1 122/1
f 122/1 124/1 123/1 121/1
f 122/1 66/1 125/1 124/1
f 125/1 66/1 67/1 126/1
f 125/1 78/1 74/1 124/1
f 125/1 126/1 127/1 78/1
f 127/1 128/1 77/1 78/1
f 128/1 129/1 83/1 77/1
f 129/1 131/1 130/1 83/1
f 130/1 132/1 82/1 83/1
f 132/1 133/1 81/1 82/1
f 133/1 135/1 134/1 81/1
f 135/1 137/1 136/1 134/1
f 137/1 139/1 138/1 136/1
f 139/1 141/1 140/1 138/1
f 141/1 143/1 142/1 140/1
f 143/1 145/1 144/1 142/1
f 145/1 42/1 38/1 144/1
f 144/1 147/1 146/1 142/1
f 144/1 38/1 39/1 147/1
f 147/1 149/1 148/1 146/1
f 147/1 39/1 150/1 149/1
f 149/1 152/1 151/1 148/1
f 149/1 150/1 153/1 152/1
f 152/1 155/1 154/1 151/1
f 152/1 153/1 156/1 155/1
f 156/1 158/1 157/1 155/1
f 156/1 160/1 159/1 158/1
f 156/1 153/1 161/1 160/1
f 160/1 163/1 162/1 159/1
f 160/1 161/1 164/1 163/1
f 164/1 161/1 17/1 18/1
f 164/1 166/1 165/1 163/1
f 164/1 18/1 167/1 166/1
f 167/1 18/1 15/1 168/1
f 167/1 170/1 169/1 166/1
f 167/1 168/1 171/1 170/1
f 171/1 168/1 173/1 172/1
f 171/1 175/1 174/1 170/1
f 171/1 172/1 176/1 175/1
f 176/1 172/1 178/1 177/1
f 176/1 180/1 179/1 175/1
f 176/1 177/1 181/1 180/1
f 181/1 177/1 183/1 182/1
f 181/1 185/1 184/1 180/1
f 181/1 182/1 186/1 185/1
f 186/1 188/1 187/1 185/1
f 188/1 190/1 189/1 187/1
f 190/1 192/1 191/1 189/1
f 192/1 98/1 99/1 191/1
f 191/1 194/1 193/1 189/1
f 191/1 99/1 100/1 194/1
f 194/1 196/1 195/1 193/1
f 194/1 100/1 102/1 196/1
f 196/1 198/1 197/1 195/1
f 196/1 102/1 199/1 198/1
f 199/1 201/1 200/1 198/1
f 199/1 105/1 202/1 201/1
f 199/1 102/1 103/1 105/1
f 202/1 204/1 203/1 201/1
f 202/1 206/1 205/1 204/1
f 202/1 105/1 106/1 206/1
f 206/1 208/1 207/1 205/1
f 206/1 106/1 107/1 208/1
f 208/1 210/1 209/1 207/1
f 208/1 107/1 109/1 210/1
f 210/1 212/1 211/1 209/1
f 210/1 109/1 117/1 212/1
f 212/1 214/1 213/1 211/1
f 212/1 117/1 118/1 214/1
f 214/1 216/1 215/1 213/1
f 214/1 118/1 119/1 216/1
f 216/1 218/1 217/1 215/1
f 216/1 119/1 121/1 218/1
f 218/1 220/1 219/1 217/1
f 218/1 121/1 123/1 220/1
f 220/1 222/1 221/1 219/1
f 220/1 123/1 75/1 222/1
f 222/1 224/1 223/1 221/1
f 222/1 75/1 76/1 224/1
f 224/1 226/1 225/1 223/1
f 224/1 76/1 79/1 226/1
f 226/1 228/1 227/1 225/1
f 226/1 79/1 229/1 228/1
f 229/1 79/1 80/1 230/1
f 229/1 232/1 231/1 228/1
f 229/1 230/1 233/1 232/1
f 233/1 230/1 134/1 136/1
f 233/1 235/1 234/1 232/1
f 233/1 136/1 138/1 235/1
f 235/1 237/1 236/1 234/1
f 235/1 138/1 140/1 237/1
f 237/1 146/1 148/1 236/1
f 237/1 140/1 142/1 146/1
f 236/1 239/1 238/1 234/1
f 236/1 148/1 151/1 239/1
f 239/1 241/1 240/1 238/1
f 239/1 151/1 154/1 241/1
f 241/1 243/1 242/1 240/1
f 241/1 154/1 244/1 243/1
f 244/1 246/1 245/1 243/1
f 244/1 157/1 247/1 246/1
f 244/1 154/1 155/1 157/1
f 247/1 249/1 248/1 246/1
f 247/1 251/1 250/1 249/1
f 247/1 157/1 158/1 251/1
f 251/1 253/1 252/1 250/1
f 251/1 158/1 159/1 253/1
f 253/1 255/1 254/1 252/1
f 253/1 159/1 162/1 255/1
f 255/1 257/1 256/1 254/1
f 255/1 162/1 258/1 257/1
f 258/1 162/1 163/1 165/1
f 258/1 260/1 259/1 257/1
f 258/1 165/1 261/1 260/1
f 261/1 165/1 166/1 169/1
f 261/1 263/1 262/1 260/1
f 261/1 169/1 264/1 263/1
f 264/1 169/1 170/1 174/1
f 264/1 266/1 265/1 263/1
f 264/1 174/1 267/1 266/1
f 267/1 174/1 175/1 179/1
f 267/1 269/1 268/1 266/1
f 267/1 179/1 270/1 269/1
f 270/1 179/1 180/1 184/1
f 270/1 272/1 271/1 269/1
f 270/1 184/1 273/1 272/1
f 273/1 184/1 185/1 187/1
f 273/1 193/1 195/1 272/1
f 273/1 187/1 189/1 193/1
f 272/1 195/1 197/1 271/1
f 271/1 274/1 268/1 269/1
f 271/1 197/1 275/1 274/1
f 275/1 277/1 276/1 274/1
f 275/1 200/1 278/1 277/1
f 275/1 197/1 198/1 200/1
f 278/1 280/1 279/1 277/1
f 278/1 203/1 281/1 280/1
f 278/1 200/1 201/1 203/1
f 281/1 283/1 282/1 280/1
f 281/1 285/1 284/1 283/1
f 281/1 203/1 204/1 285/1
f 285/1 287/1 286/1 284/1
f 285/1 204/1 205/1 287/1
f 287/1 289/1 288/1 286/1
f 287/1 205/1 207/1 289/1
f 289/1 291/1 290/1 288/1
f 289/1 207/1 209/1 291/1
f 291/1 293/1 292/1 290/1
f 291/1 209/1 211/1 293/1
f 293/1 295/1 294/1 292/1
f 293/1 211/1 213/1 295/1
f 295/1 297/1 296/1 294/1
f 295/1 213/1 215/1 297/1
f 297/1 299/1 298/1 296/1
f 297/1 215/1 217/1 299/1
f 299/1 301/1 300/1 298/1
f 299/1 217/1 219/1 301/1
f 301/1 303/1 302/1 300/1
f 301/1 219/1 221/1 303/1
f 303/1 305/1 304/1 302/1
f 303/1 221/1 223/1 305/1
f 305/1 307/1 306/1 304/1
f 305/1 223/1 225/1 307/1
f 307/1 309/1 308/1 306/1
f 307/1 225/1 227/1 309/1
f 309/1 311/1 310/1 308/1
f 309/1 227/1 312/1 311/1
f 312/1 227/1 228/1 231/1
f 312/1 240/1 242/1 311/1
f 312/1 231/1 238/1 240/1
f 311/1 242/1 313/1 310/1
f 313/1 315/1 314/1 310/1
f 313/1 245/1 316/1 315/1
f 313/1 242/1 243/1 245/1
f 316/1 318/1 317/1 315/1
f 316/1 248/1 319/1 318/1
f 316/1 245/1 246/1 248/1
f 319/1 321/1 320/1 318/1
f 319/1 323/1 322/1 321/1
f 319/1 248/1 249/1 323/1
f 323/1 325/1 324/1 322/1
f 323/1 249/1 250/1 325/1
f 325/1 327/1 326/1 324/1
f 325/1 250/1 252/1 327/1
f 327/1 329/1 328/1 326/1
f 327/1 252/1 254/1 329/1
f 329/1 331/1 330/1 328/1
f 329/1 254/1 256/1 331/1
f 331/1 333/1 332/1 330/1
f 331/1 256/1 334/1 333/1
f 334/1 256/1 257/1 259/1
f 334/1 336/1 335/1 333/1
f 334/1 259/1 337/1 336/1
f 337/1 259/1 260/1 262/1
f 337/1 339/1 338/1 336/1
f 337/1 262/1 340/1 339/1
f 340/1 262/1 263/1 265/1
f 340/1 342/1 341/1 339/1
f 340/1 265/1 343/1 342/1
f 343/1 265/1 266/1 268/1
f 343/1 276/1 344/1 342/1
f 343/1 268/1 274/1 276/1
f 344/1 345/1 341/1 342/1
f 344/1 279/1 346/1 345/1
f 344/1 276/1 277/1 279/1
f 346/1 348/1 347/1 345/1
f 346/1 282/1 349/1 348/1
f 346/1 279/1 280/1 282/1
f 349/1 351/1 350/1 348/1
f 349/1 353/1 352/1 351/1
f 349/1 282/1 283/1 353/1
f 353/1 355/1 354/1 352/1
f 353/1 283/1 284/1 355/1
f 355/1 357/1 356/1 354/1
f 355/1 284/1 286/1 357/1
f 357/1 359/1 358/1 356/1
f 357/1 286/1 288/1 359/1
f 359/1 361/1 360/1 358/1
f 359/1 288/1 290/1 361/1
f 361/1 363/1 362/1 360/1
f 361/1 290/1 292/1 363/1
f 363/1 365/1 364/1 362/1
f 363/1 292/1 294/1 365/1
f 365/1 367/1 366/1 364/1
f 365/1 294/1 296/1 367/1
f 367/1 369/1 368/1 366/1
f 367/1 296/1 298/1 369/1
f 369/1 371/1 370/1 368/1
f 369/1 298/1 300/1 371/1
f 371/1 373/1 372/1 370/1
f 371/1 300/1 302/1 373/1
f 373/1 375/1 374/1 372/1
f 373/1 302/1 304/1 375/1
f 375/1 377/1 376/1 374/1
f 375/1 304/1 306/1 377/1
f 377/1 379/1 378/1 376/1
f 377/1 306/1 308/1 379/1
f 379/1 314/1 380/1 378/1
f 379/1 308/1 310/1 314/1
f 380/1 382/1 381/1 378/1
f 380/1 317/1 383/1 382/1
f 380/1 314/1 315/1 317/1
f 383/1 385/1 384/1 382/1
f 383/1 320/1 386/1 385/1
f 383/1 317/1 318/1 320/1
f 386/1 388/1 387/1 385/1
f 386/1 390/1 389/1 388/1
f 386/1 320/1 321/1 390/1
f 390/1 392/1 391/1 389/1
f 390/1 321/1 322/1 392/1
f 392/1 394/1 393/1 391/1
f 392/1 322/1 324/1 394/1
f 394/1 396/1 395/1 393/1
f 394/1 324/1 326/1 396/1
f 396/1 398/1 397/1 395/1
f 396/1 326/1 328/1 398/1
f 398/1 400/1 399/1 397/1
f 398/1 328/1 330/1 400/1
f 400/1 47/1 43/1 399/1
f 400/1 330/1 332/1 47/1
f 399/1 402/1 401/1 397/1
f 399/1 43/1 44/1 402/1
f 402/1 404/1 403/1 401/1
f 402/1 44/1 405/1 404/1
f 405/1 408/1 407/1 406/1
f 405/1 44/1 45/1 408/1
f 405/1 406/1 409/1 404/1
f 409/1 406/1 411/1 410/1
f 409/1 412/1 403/1 404/1
f 409/1 410/1 413/1 412/1
f 413/1 410/1 415/1 414/1
f 413/1 417/1 416/1 412/1
f 413/1 414/1 418/1 417/1
f 418/1 414/1 420/1 419/1
f 418/1 422/1 421/1 417/1
f 418/1 419/1 423/1 422/1
f 423/1 419/1 425/1 424/1
f 423/1 427/1 426/1 422/1
f 423/1 424/1 428/1 427/1
f 428/1 424/1 364/1 366/1
f 428/1 430/1 429/1 427/1
f 428/1 366/1 368/1 430/1
f 430/1 432/1 431/1 429/1
f 430/1 368/1 370/1 432/1
f 432/1 434/1 433/1 431/1
f 432/1 370/1 372/1 434/1
f 434/1 435/1 56/1 433/1
f 434/1 372/1 374/1 435/1
f 435/1 436/1 55/1 56/1
f 435/1 374/1 376/1 436/1
f 436/1 381/1 58/1 55/1
f 436/1 376/1 378/1 381/1
f 433/1 438/1 437/1 431/1
f 433/1 56/1 57/1 438/1
f 438/1 440/1 439/1 437/1
f 438/1 57/1 441/1 440/1
f 441/1 57/1 58/1 384/1
f 441/1 387/1 64/1 440/1
f 441/1 384/1 385/1 387/1
f 440/1 64/1 59/1 439/1
f 439/1 443/1 442/1 437/1
f 439/1 59/1 60/1 443/1
f 443/1 444/1 426/1 442/1
f 443/1 60/1 445/1 444/1
f 445/1 446/1 421/1 444/1
f 445/1 448/1 447/1 446/1
f 445/1 60/1 61/1 448/1
f 448/1 450/1 449/1 447/1
f 448/1 61/1 62/1 450/1
f 450/1 62/1 389/1 391/1
f 450/1 391/1 393/1 449/1
f 449/1 452/1 451/1 447/1
f 449/1 393/1 395/1 452/1
f 452/1 401/1 403/1 451/1
f 452/1 395/1 397/1 401/1
f 451/1 403/1 412/1 416/1
f 451/1 416/1 446/1 447/1
f 446/1 416/1 417/1 421/1
f 444/1 421/1 422/1 426/1
f 442/1 426/1 427/1 429/1
f 442/1 429/1 431/1 437/1
f 425/1 453/1 360/1 362/1
f 425/1 419/1 420/1 453/1
f 425/1 362/1 364/1 424/1
f 453/1 454/1 358/1 360/1
f 453/1 420/1 455/1 454/1
f 455/1 457/1 456/1 454/1
f 455/1 415/1 458/1 457/1
f 455/1 420/1 414/1 415/1
f 458/1 54/1 52/1 457/1
f 458/1 411/1 459/1 54/1
f 458/1 415/1 410/1 411/1
f 459/1 407/1 461/1 460/1
f 459/1 411/1 406/1 407/1
f 459/1 460/1 51/1 54/1
f 461/1 464/1 463/1 462/1
f 461/1 407/1 408/1 464/1
f 461/1 462/1 465/1 460/1
f 465/1 462/1 466/1 350/1
f 465/1 50/1 51/1 460/1
f 465/1 350/1 351/1 50/1
f 466/1 468/1 467/1 347/1
f 466/1 462/1 463/1 468/1
f 466/1 347/1 348/1 350/1
f 468/1 469/1 338/1 467/1
f 468/1 463/1 470/1 469/1
f 470/1 471/1 335/1 469/1
f 470/1 48/1 46/1 471/1
f 470/1 463/1 464/1 48/1
f 471/1 332/1 333/1 335/1
f 471/1 46/1 47/1 332/1
f 469/1 335/1 336/1 338/1
f 467/1 338/1 339/1 341/1
f 467/1 341/1 345/1 347/1
f 464/1 408/1 45/1 48/1
f 457/1 52/1 53/1 456/1
f 456/1 53/1 354/1 356/1
f 456/1 356/1 358/1 454/1
f 389/1 62/1 63/1 388/1
f 388/1 63/1 64/1 387/1
f 384/1 58/1 381/1 382/1
f 354/1 53/1 49/1 352/1
f 352/1 49/1 50/1 351/1
f 238/1 231/1 232/1 234/1
f 230/1 80/1 81/1 134/1
f 183/1 177/1 178/1 472/1
f 472/1 178/1 474/1 473/1
f 474/1 476/1 475/1 473/1
f 474/1 173/1 16/1 476/1
f 474/1 178/1 172/1 173/1
f 476/1 478/1 477/1 475/1
f 476/1 16/1 12/1 478/1
f 173/1 168/1 15/1 16/1
f 124/1 74/1 75/1 123/1
f 117/1 109/1 110/1 113/1
f 112/1 84/1 85/1 20/1
f 71/1 480/1 479/1 70/1
f 480/1 33/1 34/1 479/1
f 479/1 482/1 481/1 70/1
f 479/1 34/1 37/1 482/1
f 481/1 67/1 9/1 70/1
f 483/1 484/1 1/1 17/1
f 484/1 485/1 14/1 1/1
f 485/1 487/1 486/1 14/1
f 487/1 489/1 488/1 486/1
f 489/1 27/1 28/1 488/1
f 488/1 491/1 490/1 486/1
f 488/1 28/1 29/1 491/1
f 490/1 13/1 14/1 486/1
f 150/1 39/1 40/1 492/1
f 23/1 494/1 493/1 22/1
f 41/1 495/1 40/1 5/1
f 21/1 2/1 22/1
f 90/1 92/1 93/1 91/1
f 495/1 483/1 492/1 40/1
f 483/1 17/1 161/1 492/1
f 492/1 161/1 153/1 150/1
f 496/1 506/1 505/1 504/1
f 496/1 504/1 508/1 507/1
f 496/1 507/1 510/1 509/1
f 497/1 513/1 512/1 511/1
f 497/1 516/1 515/1 514/1
f 497/1 511/1 517/1 516/1
f 498/1 520/1 519/1 518/1
f 498/1 522/1 521/1 520/1
f 498/1 518/1 523/1 522/1
f 499/1 526/1 525/1 524/1
f 499/1 524/1 528/1 527/1
f 499/1 527/1 529/1 526/1
f 500/1 532/1 531/1 530/1
f 500/1 530/1 534/1 533/1
f 501/1 537/1 536/1 535/1
f 501/1 535/1 539/1 538/1
f 501/1 542/1 541/1 540/1
f 501/1 538/1 543/1 542/1
f 502/1 546/1 545/1 544/1
f 502/1 544/1 548/1 547/1
f 502/1 550/1 549/1 546/1
f 502/1 552/1 551/1 550/1
f 502/1 547/1 553/1 552/1
f 503/1 556/1 555/1 554/1
f 558/1 503/1 554/1 559/1
f 503/1 558/1 557/1 556/1
f 562/1 517/1 511/1 563/1
f 563/1 555/1 556/1 561/1
f 563/1 511/1 512/1 555/1
f 561/1 556/1 564/1 560/1
f 564/1 556/1 557/1 565/1
f 565/1 557/1 567/1 566/1
f 567/1 569/1 568/1 566/1
f 567/1 571/1 570/1 569/1
f 567/1 557/1 558/1 571/1
f 571/1 573/1 572/1 570/1
f 571/1 558/1 574/1 573/1
f 574/1 576/1 575/1 573/1
f 574/1 578/1 577/1 576/1
f 574/1 558/1 559/1 578/1
f 578/1 580/1 579/1 577/1
f 578/1 559/1 581/1 580/1
f 581/1 559/1 554/1 582/1
f 581/1 584/1 583/1 580/1
f 581/1 582/1 585/1 584/1
f 585/1 582/1 512/1 513/1
f 585/1 538/1 539/1 584/1
f 585/1 513/1 543/1 538/1
f 584/1 539/1 586/1 583/1
f 586/1 588/1 587/1 583/1
f 586/1 590/1 589/1 588/1
f 586/1 539/1 535/1 590/1
f 590/1 592/1 591/1 589/1
f 590/1 535/1 536/1 592/1
f 592/1 594/1 593/1 591/1
f 592/1 536/1 595/1 594/1
f 595/1 536/1 537/1 596/1
f 595/1 548/1 544/1 594/1
f 595/1 596/1 597/1 548/1
f 597/1 598/1 547/1 548/1
f 598/1 599/1 553/1 547/1
f 599/1 601/1 600/1 553/1
f 600/1 602/1 552/1 553/1
f 602/1 603/1 551/1 552/1
f 603/1 605/1 604/1 551/1
f 605/1 607/1 606/1 604/1
f 607/1 609/1 608/1 606/1
f 609/1 611/1 610/1 608/1
f 611/1 613/1 612/1 610/1
f 613/1 615/1 614/1 612/1
f 615/1 534/1 530/1 614/1
f 614/1 617/1 616/1 612/1
f 614/1 530/1 531/1 617/1
f 617/1 619/1 618/1 616/1
f 617/1 531/1 620/1 619/1
f 619/1 622/1 621/1 618/1
f 619/1 620/1 623/1 622/1
f 622/1 625/1 624/1 621/1
f 622/1 623/1 626/1 625/1
f 626/1 628/1 627/1 625/1
f 626/1 630/1 629/1 628/1
f 626/1 623/1 631/1 630/1
f 630/1 633/1 632/1 629/1
f 630/1 631/1 634/1 633/1
f 634/1 631/1 509/1 510/1
f 634/1 636/1 635/1 633/1
f 634/1 510/1 637/1 636/1
f 637/1 510/1 507/1 638/1
f 637/1 640/1 639/1 636/1
f 637/1 638/1 641/1 640/1
f 641/1 638/1 643/1 642/1
f 641/1 645/1 644/1 640/1
f 641/1 642/1 646/1 645/1
f 646/1 642/1 648/1 647/1
f 646/1 650/1 649/1 645/1
f 646/1 647/1 651/1 650/1
f 651/1 647/1 653/1 652/1
f 651/1 655/1 654/1 650/1
f 651/1 652/1 656/1 655/1
f 656/1 658/1 657/1 655/1
f 658/1 660/1 659/1 657/1
f 660/1 662/1 661/1 659/1
f 662/1 568/1 569/1 661/1
f 661/1 664/1 663/1 659/1
f 661/1 569/1 570/1 664/1
f 664/1 666/1 665/1 663/1
f 664/1 570/1 572/1 666/1
f 666/1 668/1 667/1 665/1
f 666/1 572/1 669/1 668/1
f 669/1 671/1 670/1 668/1
f 669/1 575/1 672/1 671/1
f 669/1 572/1 573/1 575/1
f 672/1 674/1 673/1 671/1
f 672/1 676/1 675/1 674/1
f 672/1 575/1 576/1 676/1
f 676/1 678/1 677/1 675/1
f 676/1 576/1 577/1 678/1
f 678/1 680/1 679/1 677/1
f 678/1 577/1 579/1 680/1
f 680/1 682/1 681/1 679/1
f 680/1 579/1 587/1 682/1
f 682/1 684/1 683/1 681/1
f 682/1 587/1 588/1 684/1
f 684/1 686/1 685/1 683/1
f 684/1 588/1 589/1 686/1
f 686/1 688/1 687/1 685/1
f 686/1 589/1 591/1 688/1
f 688/1 690/1 689/1 687/1
f 688/1 591/1 593/1 690/1
f 690/1 692/1 691/1 689/1
f 690/1 593/1 545/1 692/1
f 692/1 694/1 693/1 691/1
f 692/1 545/1 546/1 694/1
f 694/1 696/1 695/1 693/1
f 694/1 546/1 549/1 696/1
f 696/1 698/1 697/1 695/1
f 696/1 549/1 699/1 698/1
f 699/1 549/1 550/1 700/1
f 699/1 702/1 701/1 698/1
f 699/1 700/1 703/1 702/1
f 703/1 700/1 604/1 606/1
f 703/1 705/1 704/1 702/1
f 703/1 606/1 608/1 705/1
f 705/1 707/1 706/1 704/1
f 705/1 608/1 610/1 707/1
f 707/1 616/1 618/1 706/1
f 707/1 610/1 612/1 616/1
f 706/1 709/1 708/1 704/1
f 706/1 618/1 621/1 709/1
f 709/1 711/1 710/1 708/1
f 709/1 621/1 624/1 711/1
f 711/1 713/1 712/1 710/1
f 711/1 624/1 714/1 713/1
f 714/1 624/1 625/1 627/1
f 715/1 632/1 633/1 635/1
f 715/1 635/1 717/1 716/1
f 717/1 635/1 636/1 639/1
f 717/1 719/1 718/1 716/1
f 717/1 639/1 720/1 719/1
f 720/1 639/1 640/1 644/1
f 720/1 722/1 721/1 719/1
f 720/1 644/1 723/1 722/1
f 723/1 644/1 645/1 649/1
f 723/1 725/1 724/1 722/1
f 723/1 649/1 726/1 725/1
f 726/1 649/1 650/1 654/1
f 726/1 728/1 727/1 725/1
f 726/1 654/1 729/1 728/1
f 729/1 654/1 655/1 657/1
f 729/1 663/1 665/1 728/1
f 729/1 657/1 659/1 663/1
f 728/1 665/1 667/1 727/1
f 727/1 730/1 724/1 725/1
f 727/1 667/1 731/1 730/1
f 731/1 733/1 732/1 730/1
f 731/1 670/1 734/1 733/1
f 731/1 667/1 668/1 670/1
f 734/1 736/1 735/1 733/1
f 734/1 673/1 737/1 736/1
f 734/1 670/1 671/1 673/1
f 737/1 673/1 674/1 738/1
f 738/1 674/1 675/1 739/1
f 739/1 675/1 677/1 740/1
f 740/1 677/1 679/1 741/1
f 741/1 679/1 681/1 742/1
f 742/1 681/1 683/1 743/1
f 743/1 683/1 685/1 744/1
f 744/1 685/1 687/1 745/1
f 745/1 687/1 689/1 746/1
f 746/1 689/1 691/1 747/1
f 747/1 691/1 693/1 748/1
f 748/1 693/1 695/1 749/1
f 749/1 695/1 697/1 750/1
f 750/1 697/1 752/1 751/1
f 752/1 697/1 698/1 701/1
f 752/1 710/1 712/1 751/1
f 752/1 701/1 708/1 710/1
f 753/1 718/1 719/1 721/1
f 753/1 721/1 755/1 754/1
f 755/1 721/1 722/1 724/1
f 755/1 732/1 756/1 754/1
f 755/1 724/1 730/1 732/1
f 756/1 732/1 733/1 735/1
f 708/1 701/1 702/1 704/1
f 700/1 550/1 551/1 604/1
f 653/1 647/1 648/1 757/1
f 757/1 648/1 759/1 758/1
f 759/1 761/1 760/1 758/1
f 759/1 643/1 508/1 761/1
f 759/1 648/1 642/1 643/1
f 761/1 763/1 762/1 760/1
f 761/1 508/1 504/1 763/1
f 643/1 638/1 507/1 508/1
f 594/1 544/1 545/1 593/1
f 587/1 579/1 580/1 583/1
f 582/1 554/1 555/1 512/1
f 541/1 765/1 764/1 540/1
f 765/1 525/1 526/1 764/1
f 764/1 767/1 766/1 540/1
f 764/1 526/1 529/1 767/1
f 766/1 537/1 501/1 540/1
f 768/1 769/1 496/1 509/1
f 769/1 770/1 506/1 496/1
f 770/1 772/1 771/1 506/1
f 772/1 774/1 773/1 771/1
f 774/1 519/1 520/1 773/1
f 773/1 776/1 775/1 771/1
f 773/1 520/1 521/1 776/1
f 775/1 505/1 506/1 771/1
f 620/1 531/1 532/1 777/1
f 515/1 779/1 778/1 514/1
f 533/1 780/1 532/1 500/1
f 513/1 497/1 514/1
f 560/1 562/1 563/1 561/1
f 780/1 768/1 777/1 532/1
f 768/1 509/1 631/1 777/1
f 777/1 631/1 623/1 620/1
g Group48057
f 781/2 784/3 785/4 782/5
f 782/5 785/4 786/6 783/7
f 784/3 787/8 788/9 785/4
f 785/4 788/9 789/10 786/6
f 787/8 790/11 791/12 788/9
f 788/9 791/12 792/13 789/10
f 790/11 793/14 794/15 791/12
f 791/12 794/15 795/16 792/13
f 793/14 796/17 797/18 794/15
f 794/15 797/18 798/19 795/16
f 796/17 799/20 800/21 797/18
f 797/18 800/21 801/22 798/19
f 799/20 802/23 803/24 800/21
f 800/21 803/24 804/25 801/22
f 802/23 805/26 806/27 803/24
f 803/24 806/27 807/28 804/25
f 805/26 808/29 809/30 806/27
f 806/27 809/30 810/31 807/28
f 808/29 811/32 812/33 809/30
f 809/30 812/33 813/34 810/31
f 811/32 814/35 815/36 812/33
f 812/33 815/36 816/37 813/34
f 814/35 817/38 818/39 815/36
f 815/36 818/39 819/40 816/37
f 817/38 820/41 821/42 818/39
f 818/39 821/42 822/43 819/40
f 820/41 823/44 824/45 821/42
f 821/42 824/45 825/46 822/43
f 823/44 826/47 827/48 824/45
f 824/45 827/48 828/49 825/46
f 826/47 829/50 830/51 827/48
f 827/48 830/51 831/52 828/49
f 829/50 832/53 833/54 830/51
f 830/51 833/54 834/55 831/52
f 832/53 835/56 836/57 833/54
f 833/54 836/57 837/58 834/55
f 835/56 838/59 839/60 836/57
f 836/57 839/60 840/61 837/58
f 838/59 841/62 842/63 839/60
f 839/60 842/63 843/64 840/61
f 841/62 844/65 845/66 842/63
f 842/63 845/66 846/67 843/64
f 847/2 850/3 851/4 848/5
f 848/5 851/4 852/6 849/7
f 850/3 853/8 854/9 851/4
f 851/4 854/9 855/10 852/6
f 853/8 856/11 857/12 854/9
f 854/9 857/12 858/13 855/10
f 856/11 859/14 860/15 857/12
f 857/12 860/15 861/16 858/13
f 859/14 862/17 863/18 860/15
f 860/15 863/18 864/19 861/16
f 862/17 865/20 866/21 863/18
f 863/18 866/21 867/22 864/19
f 865/20 868/23 869/24 866/21
f 866/21 869/24 870/25 867/22
f 868/23 871/26 872/27 869/24
f 869/24 872/27 873/28 870/25
f 874/2 877/3 878/4 875/5
f 875/5 878/4 879/6 876/7
f 877/3 880/8 881/9 878/4
f 878/4 881/9 882/10 879/6
f 880/8 883/11 884/12 881/9
f 881/9 884/12 885/13 882/10
f 883/11 886/14 887/15 884/12
f 884/12 887/15 888/16 885/13
f 886/14 889/17 890/18 887/15
f 887/15 890/18 891/19 888/16
f 889/17 892/20 893/21 890/18
f 890/18 893/21 894/22 891/19
f 892/20 895/23 896/24 893/21
f 893/21 896/24 897/25 894/22
f 895/23 898/26 899/27 896/24
f 896/24 899/27 900/28 897/25
f 901/2 904/3 905/4 902/5
f 902/5 905/4 906/6 903/7
f 904/3 907/8 908/9 905/4
f 905/4 908/9 909/10 906/6
f 907/8 910/11 911/12 908/9
f 908/9 911/12 912/13 909/10
f 910/11 913/14 914/15 911/12
f 911/12 914/15 915/16 912/13
f 913/14 916/17 917/18 914/15
f 914/15 917/18 918/19 915/16
f 916/17 919/20 920/21 917/18
f 917/18 920/21 921/22 918/19
f 919/20 922/23 923/24 920/21
f 920/21 923/24 924/25 921/22
f 922/23 925/26 926/27 923/24
f 923/24 926/27 927/28 924/25
f 928/2 931/3 932/4 929/5
f 929/5 932/4 933/6 930/7
f 931/3 934/8 935/9 932/4
f 932/4 935/9 936/10 933/6
f 934/8 937/11 938/12 935/9
f 935/9 938/12 939/13 936/10
f 937/11 940/14 941/15 938/12
f 938/12 941/15 942/16 939/13
f 940/14 943/17 944/18 941/15
f 941/15 944/18 945/19 942/16
f 943/17 946/20 947/21 944/18
f 944/18 947/21 948/22 945/19
f 946/20 949/23 950/24 947/21
f 947/21 950/24 951/25 948/22
f 949/23 952/26 953/27 950/24
f 950/24 953/27 954/28 951/25
f 955/2 958/3 959/4 956/5
f 956/5 959/4 960/6 957/7
f 958/3 961/8 962/9 959/4
f 959/4 962/9 963/10 960/6
f 961/8 964/11 965/12 962/9
f 962/9 965/12 966/13 963/10
f 964/11 967/14 968/15 965/12
f 965/12 968/15 969/16 966/13
f 967/14 970/17 971/18 968/15
f 968/15 971/18 972/19 969/16
f 970/17 973/20 974/21 971/18
f 971/18 974/21 975/22 972/19
f 973/20 976/23 977/24 974/21
f 974/21 977/24 978/25 975/22
f 976/23 979/26 980/27 977/24
f 977/24 980/27 981/28 978/25

 